PathFileType	4	(X/Y/Z)	./resultDataOpenSim/trcMotMarkerGrf/sub09/qtm-14-01.trc
DataRate	CameraRate	NumFrames	NumMarkers	Units	OrigDataRate	OrigDataStartFrame	OrigNumFrames
250.000000	250.000000	9	24	m	250.000000	381	507
Frame#	Time	L.Toe.Tip			R.Toe.Tip			L.Ankle.Lat			R.Ankle.Lat			L.Ankle.Med			R.Ankle.Med			L.Heel			R.Heel			L.Knee.Lat			R.Knee.Lat			L.Knee.Med			R.Knee.Med			L.Thigh.Upper			R.Thigh.Upper			L.ASIS			R.ASIS			V.Sacral			L.Acromium			R.Acromium			C7			L.Elbow			R.Elbow			L.Wrist.Lat			R.Wrist.Lat
		X1	Y1	Z1	X2	Y2	Z2	X3	Y3	Z3	X4	Y4	Z4	X5	Y5	Z5	X6	Y6	Z6	X7	Y7	Z7	X8	Y8	Z8	X9	Y9	Z9	X10	Y10	Z10	X11	Y11	Z11	X12	Y12	Z12	X13	Y13	Z13	X14	Y14	Z14	X15	Y15	Z15	X16	Y16	Z16	X17	Y17	Z17	X18	Y18	Z18	X19	Y19	Z19	X20	Y20	Z20	X21	Y21	Z21	X22	Y22	Z22	X23	Y23	Z23	X24	Y24	Z24

381	1.52	0.85125472	0.14919437	-0.12745796	0.97831869	0.040702261	0.0025631874	0.78172015	0.28518224	-0.15521733	0.83461263	0.080236546	0.045265029	0.80395098	0.26523338	-0.059635501	0.86197282	0.1272232	-0.039511761	0.70204944	0.30350456	-0.10708707	0.76631648	0.079275478	-0.0070160271	1.1057068	0.52821074	-0.15208852	0.99596246	0.50439901	0.14189292	1.1060959	0.5125568	-0.025794058	0.99064795	0.49979168	0.015993241	0.92665566	0.89761509	-0.16841183	0.92043321	0.90819319	0.20452099	1.0022264	0.98282418	-0.10879977	1.0087044	0.99147482	0.13055748	0.8403421	1.0466012	0.011580054	1.0079037	1.4334995	-0.16827064	1.0035868	1.455427	0.16204982	0.9419444	1.4964131	-0.0044541251	0.85523847	1.0921773	-0.22278037	0.83393544	1.1295968	0.26399983	1.0206985	0.8841495	-0.25796345	1.0259132	0.9268909	0.29099751
382	1.524	0.8682688	0.14644808	-0.12739335	0.97844166	0.040739031	0.0028111755	0.79502748	0.28030358	-0.15569755	0.83494007	0.081008762	0.045641237	0.81741269	0.26102198	-0.060045974	0.86260673	0.12801798	-0.039022817	0.71467784	0.29666653	-0.10795717	0.76688543	0.080357542	-0.0066035757	1.1136789	0.53066085	-0.15182607	0.99737372	0.50492805	0.14243813	1.1137075	0.51529199	-0.025717358	0.99215552	0.50027761	0.016407729	0.93230038	0.89920392	-0.1687276	0.92457033	0.9093315	0.20424226	1.0076254	0.98452768	-0.10881037	1.0132415	0.99267028	0.13061714	0.84523265	1.0478106	0.011189353	1.0122213	1.4349804	-0.16814581	1.0077933	1.456828	0.16214025	0.94620738	1.4977634	-0.004283067	0.85920755	1.094107	-0.22247691	0.83874833	1.1303072	0.26429341	1.0219249	0.88433088	-0.258362	1.0332016	0.92973138	0.28982953
383	1.528	0.88574937	0.14368493	-0.12729171	0.97852741	0.04069024	0.0030277474	0.80844753	0.27526342	-0.15608939	0.83523282	0.08175816	0.045998441	0.83103078	0.25667634	-0.0603784	0.86327607	0.12879343	-0.038515668	0.72750767	0.28961901	-0.10878869	0.76738093	0.081403565	-0.0063146962	1.1215609	0.53296938	-0.15150972	0.99880487	0.50545982	0.14297639	1.121761	0.51795791	-0.025536845	0.99375217	0.50070366	0.016783072	0.93793963	0.90070561	-0.16897661	0.92893248	0.91045661	0.20385607	1.0127596	0.98618105	-0.10871498	1.0177816	0.99381905	0.13068848	0.85015881	1.0489771	0.010824801	1.0165533	1.4364123	-0.1680074	1.012109	1.4581713	0.16216505	0.9504791	1.4990596	-0.0041154334	0.86319976	1.0959941	-0.2221553	0.84349021	1.1309367	0.2645397	1.0231923	0.88451723	-0.25877463	1.040427	0.9325588	0.28867193
384	1.532	0.90337705	0.14089328	-0.12710916	0.9785735	0.040561784	0.0032204277	0.82200573	0.27006617	-0.15639986	0.83550132	0.082486122	0.046344814	0.84478585	0.25220768	-0.060627725	0.86392886	0.12952235	-0.037948788	0.74052739	0.28238639	-0.10954792	0.7678031	0.082461254	-0.0060965491	1.1293858	0.5351457	-0.15112752	1.0002305	0.50598565	0.14345214	1.1300724	0.5205544	-0.025288987	0.99550196	0.50107742	0.017125035	0.94366353	0.90212475	-0.16912161	0.93361957	0.91158908	0.20332626	1.0177135	0.98776377	-0.1085422	1.0223201	0.99492166	0.13076983	0.85507594	1.0500806	0.010480828	1.0208996	1.4377955	-0.16785627	1.0165077	1.4594617	0.16214173	0.95476847	1.5002965	-0.0039396025	0.86724599	1.0978251	-0.22183601	0.84818627	1.1315053	0.26475046	1.0244905	0.88469366	-0.25920309	1.0476163	0.93536863	0.287528
385	1.536	0.9209063	0.13807231	-0.12683466	0.978622	0.040451393	0.0034090887	0.8357439	0.26472744	-0.1566435	0.83576989	0.083200158	0.046687047	0.85860792	0.24763838	-0.060777592	0.8645509	0.13022702	-0.03734896	0.75372062	0.27499417	-0.11018768	0.7681846	0.08353067	-0.0058995869	1.137146	0.53721856	-0.15069488	1.0016463	0.50649608	0.1438489	1.1382275	0.52306459	-0.025034839	0.99736166	0.50144047	0.017445301	0.94955032	0.90348052	-0.16919479	0.93859302	0.91271102	0.2026921	1.022652	0.98925518	-0.1083517	1.0268541	0.99597385	0.13085747	0.85990481	1.0510898	0.010138785	1.0252651	1.4391352	-0.16770136	1.0208942	1.4607149	0.16213788	0.95907352	1.5014736	-0.0037498261	0.87137985	1.0995908	-0.22154272	0.85290128	1.1320332	0.26496048	1.0258114	0.8848616	-0.25963744	1.0547788	0.93814689	0.28640933
386	1.54	0.93832493	0.13523494	-0.12648668	0.97874311	0.040481595	0.003603412	0.84968708	0.25926666	-0.1568291	0.83606569	0.08390347	0.047014595	0.87239797	0.24299559	-0.060796459	0.86515758	0.13094758	-0.036840451	0.76713927	0.26744198	-0.11070518	0.76855853	0.084594409	-0.0057015306	1.1447975	0.53920762	-0.15025204	1.0030539	0.50699033	0.14418934	1.1459482	0.52545794	-0.02480483	0.99925003	0.50181883	0.017748208	0.95554409	0.90478439	-0.16929024	0.94357638	0.91373166	0.20211028	1.027691	0.99065018	-0.10818808	1.0313879	0.99697412	0.13095286	0.8645899	1.0519817	0.0097902236	1.0296582	1.4404388	-0.16755862	1.0252028	1.461948	0.1622044	0.96338814	1.502597	-0.0035498253	0.87559325	1.101296	-0.22128362	0.85767994	1.1325272	0.26519431	1.0271644	0.88503293	-0.26006803	1.0619052	0.94087495	0.28533474
387	1.544	0.95574345	0.13239903	-0.12608408	0.97897527	0.040676563	0.0037920479	0.86382172	0.25370176	-0.15695159	0.83640261	0.084596468	0.04730674	0.88614195	0.23829108	-0.06067197	0.86571862	0.13167888	-0.036532454	0.78085832	0.25971819	-0.11112371	0.76894789	0.085646266	-0.0054907829	1.1522907	0.54109943	-0.14983399	1.0044514	0.50747264	0.14449564	1.1532371	0.52770132	-0.024591265	1.0010878	0.5021885	0.018038252	0.96147986	0.90603029	-0.16947434	0.94807251	0.91452096	0.20180662	1.0328577	0.99195934	-0.10806351	1.0359262	0.99792348	0.13105872	0.86916563	1.0527647	0.0094289492	1.0340862	1.4417121	-0.16744286	1.0294415	1.4631511	0.1623353	0.96770616	1.5036714	-0.0033450835	0.87982984	1.1029552	-0.22103883	0.86251914	1.1329834	0.26544759	1.02857	0.88521484	-0.26049519	1.0689808	0.9435369	0.28431895
388	1.548	0.97324817	0.12958293	-0.12563334	0.97930721	0.040954944	0.0039574117	0.87811125	0.24805059	-0.15699759	0.83677875	0.085281856	0.047555526	0.89997898	0.23351076	-0.060440579	0.86621223	0.13237411	-0.036375961	0.79486943	0.25184037	-0.11143516	0.76935526	0.086680598	-0.0052701664	1.159604	0.54286066	-0.14944776	1.0058378	0.50794164	0.14477037	1.1602194	0.52976934	-0.02437817	1.0028338	0.50249364	0.018314556	0.96726808	0.90721091	-0.16974183	0.95160221	0.91504442	0.20190176	1.038119	0.99319812	-0.10796383	1.0404686	0.998823	0.13117361	0.87375256	1.0534886	0.0090439037	1.0385481	1.4429495	-0.16734771	1.0336419	1.4642827	0.16249995	0.97202086	1.5046904	-0.0031440992	0.88403766	1.1045769	-0.22078076	0.86738923	1.133395	0.26570076	1.0300403	0.88540478	-0.26092669	1.0759991	0.94613678	0.2833511
389	1.552	0.99086468	0.12680535	-0.12513202	0.97969994	0.041221454	0.0041048884	0.8925299	0.24233094	-0.15695717	0.83717798	0.085959148	0.047777654	0.91408659	0.22863757	-0.060157435	0.86669055	0.13300295	-0.036224358	0.80909926	0.24385689	-0.11161146	0.76976031	0.087685274	-0.0050631663	1.1667461	0.54446874	-0.14907999	1.0072129	0.50839172	0.1450041	1.1669928	0.53164791	-0.024158901	1.0045251	0.50270563	0.018559461	0.97300161	0.90832932	-0.17006305	0.95407933	0.91544158	0.20227713	1.043428	0.99437664	-0.1078681	1.0450142	0.99967528	0.13129586	0.87844545	1.0542047	0.0086307807	1.0430311	1.4441324	-0.16724287	1.0378247	1.4653078	0.16267705	0.97633667	1.5056432	-0.0029536216	0.8882148	1.1061562	-0.22049679	0.87225908	1.1337561	0.26593728	1.0315721	0.8855973	-0.26136546	1.0829663	0.94870515	0.28238919
